# Blender v2.93.11 OBJ File: 'Rocks.blend'
# www.blender.org
mtllib Rocks.mtl
o Cube_Cube.002
v -0.518972 -0.000258 0.518972
v -0.298587 1.101866 0.381528
v -0.400657 0.067758 -0.400657
v -0.368135 1.088480 -0.368135
v 0.482193 0.020885 0.482193
v 0.423146 1.195109 0.474770
v 0.521952 -0.001971 -0.521952
v 0.310043 1.030391 -0.310043
v -0.494472 0.073645 -0.288996
v -0.591174 0.042056 0.000000
v -0.640949 -0.046911 0.341819
v -0.497697 0.244884 0.498999
v -0.415266 0.621335 0.429263
v -0.334977 0.923841 0.385140
v -0.394975 1.156402 0.244496
v -0.498991 1.228384 0.008093
v -0.466744 1.188012 -0.242800
v -0.414904 0.923371 -0.414904
v -0.437531 0.614665 -0.437531
v -0.375089 0.249015 -0.375088
v 0.309277 0.027358 -0.550712
v 0.000000 0.086813 -0.542347
v -0.299579 0.049492 -0.523819
v -0.203028 1.105158 -0.384820
v -0.000000 1.092389 -0.372051
v 0.197002 1.093050 -0.372712
v 0.365172 0.896995 -0.365172
v 0.440536 0.615300 -0.440536
v 0.503597 0.243205 -0.503597
v 0.579808 0.003410 0.319770
v 0.639204 -0.001971 0.000000
v 0.605574 -0.017796 -0.329062
v 0.388544 1.110002 -0.203639
v 0.456301 1.187112 0.009138
v 0.481799 1.231661 0.278423
v 0.488615 0.989121 0.517927
v 0.534192 0.643276 0.543593
v 0.497159 0.244911 0.498463
v -0.348880 -0.063028 0.660531
v 0.000000 -0.074084 0.717872
v 0.325094 -0.008740 0.594571
v 0.228939 1.267927 0.547589
v 0.000000 1.271255 0.550917
v -0.173820 1.195621 0.475283
v -0.627632 0.242073 0.288220
v -0.553114 0.623169 0.252709
v -0.477719 0.932228 0.226542
v -0.675835 0.244196 -0.000000
v -0.677025 0.640251 -0.000000
v -0.602564 0.976557 0.000890
v -0.539730 0.246609 -0.256718
v -0.631224 0.634017 -0.279992
v -0.598641 0.973744 -0.265192
v -0.232287 0.250238 -0.471274
v -0.221712 0.609940 -0.473167
v -0.214292 0.919997 -0.468496
v 0.000000 0.250919 -0.574492
v 0.000000 0.625094 -0.566683
v -0.000000 0.918364 -0.455505
v 0.295506 0.240847 -0.648410
v 0.268277 0.629177 -0.599453
v 0.229021 0.935497 -0.506089
v 0.559852 0.245542 -0.263900
v 0.495099 0.613281 -0.229799
v 0.469916 0.920676 -0.214755
v 0.671211 0.244503 0.000000
v 0.621733 0.632656 0.000000
v 0.576307 0.966425 0.000921
v 0.684824 0.239030 0.308620
v 0.648655 0.637587 0.287633
v 0.597905 0.979585 0.271337
v 0.289102 0.246218 0.634502
v 0.306368 0.668110 0.727453
v 0.273940 1.047773 0.690527
v 0.000000 0.243164 0.768589
v -0.000000 0.679885 0.730749
v 0.000000 1.064273 0.661693
v -0.312822 0.241894 0.700288
v -0.262685 0.658000 0.618464
v -0.202183 1.004928 0.547804
v -0.387893 -0.012172 -0.387893
v 0.000000 -0.033694 -0.417782
v 0.393543 -0.055042 -0.393543
v -0.419795 -0.051422 0.000000
v 0.000000 -0.132844 0.000000
v 0.428237 -0.125770 0.000000
v -0.403344 -0.129420 0.403344
v 0.000000 -0.192801 0.435849
v 0.398078 -0.089454 0.398078
v 0.223182 1.214222 -0.219248
v 0.000000 1.244209 -0.230791
v -0.249643 1.281684 -0.246278
v 0.242096 1.287997 0.030721
v -0.000000 1.299925 0.045778
v -0.266821 1.350364 0.026581
v 0.235888 1.332708 0.317605
v -0.000000 1.346661 0.349203
v -0.221541 1.303840 0.309840
vt 0.246478 0.139476
vt 0.281989 0.520573
vt 0.534699 0.537654
vt 0.534699 0.141599
vt 0.308157 0.829631
vt 0.533809 0.873960
vt 0.814691 0.531420
vt 0.791417 0.144013
vt 0.799891 0.871147
vt 0.015726 -0.102855
vt 0.035699 0.142287
vt 0.192880 -0.149507
vt 0.105436 0.518738
vt 0.149558 0.821244
vt 0.153171 0.999270
vt 0.290203 1.053805
vt 0.526606 1.125788
vt 0.777499 1.085416
vt -0.105893 0.871147
vt 0.026004 1.085416
vt 0.124613 0.985884
vt 0.077844 0.820775
vt -0.138476 0.531420
vt 0.055216 0.512068
vt -0.046982 0.144013
vt 0.117659 0.146419
vt -0.001724 -0.028952
vt 0.092091 -0.034839
vt 0.534699 -0.060541
vt 0.823695 -0.028952
vt 0.260461 0.147642
vt 0.271036 0.507343
vt 0.492748 0.522498
vt 0.492748 0.148322
vt 0.278456 0.817401
vt 0.492748 0.815768
vt 0.761025 0.526580
vt 0.788254 0.138251
vt 0.721768 0.832900
vt 0.193169 -0.053105
vt 0.289720 1.002561
vt 0.492748 0.989792
vt 0.689750 0.990453
vt 1.040788 0.832900
vt 0.907410 0.990453
vt 0.844741 0.927794
vt 0.899871 0.794398
vt 1.134152 0.526580
vt 0.975235 0.512703
vt 0.933284 0.512703
vt 0.996345 0.140608
vt 0.802025 -0.075239
vt 1.014700 -0.104568
vt 0.492748 -0.015784
vt 0.798599 0.142946
vt 0.764498 0.510684
vt 0.534699 0.530060
vt 0.534699 0.141906
vt 0.749453 0.818079
vt 0.533778 0.863828
vt 0.247065 0.534990
vt 0.226079 0.136433
vt 0.263362 0.876989
vt 1.056651 -0.104568
vt 1.038296 0.140608
vt 0.863760 -0.120392
vt 0.738338 1.007405
vt 0.525560 1.084515
vt 0.256276 1.129065
vt 0.059928 1.092512
vt 0.016772 0.886525
vt -0.008894 0.540680
vt 0.036236 0.142314
vt 0.214929 -0.099186
vt 0.052506 -0.081712
vt 0.534699 -0.104568
vt 0.781850 0.143622
vt 0.799116 0.565514
vt 0.492748 0.577288
vt 0.492748 0.140567
vt 0.766688 0.945177
vt 0.492748 0.961676
vt 0.230062 0.555403
vt 0.179925 0.139298
vt 0.290565 0.902332
vt 0.974941 -0.081712
vt 0.989906 0.142314
vt 0.817842 -0.111337
vt 1.026940 0.540680
vt 0.981363 0.886525
vt 0.915894 1.092512
vt 0.721687 1.165331
vt 0.492748 1.168658
vt 0.318928 1.093024
vt -0.013105 0.902332
vt 0.059416 1.093024
vt -0.083765 0.555403
vt -0.165589 0.139298
vt 0.143868 -0.165624
vt -0.004949 0.142287
vt -0.026225 -0.102855
vt 0.492748 -0.176680
vt 0.104855 0.922592
vt 0.492748 0.952480
vt 0.492748 0.534699
vt 0.072953 0.534699
vt 0.886290 0.928241
vt 0.920985 0.534699
vt 0.492748 0.098850
vt 0.089403 0.131355
vt 0.890825 0.136621
vt 0.935356 -0.034839
vt 1.058517 -0.053105
vt 0.922592 -0.114769
vt 0.193169 1.058517
vt 0.492748 1.077046
vt 0.802025 1.085411
vt 1.014700 1.056651
vt 1.098321 0.863760
vt 1.131952 0.534699
vt 1.072556 0.214929
vt 0.974941 0.052506
vt 0.817842 -0.059872
vt 0.492748 -0.183173
vt 0.143868 -0.125832
vt -0.148201 0.192880
vt -0.026225 0.015726
vt -0.098426 0.534699
vt -0.001724 0.823695
vt 0.715930 0.753947
vt 0.492748 0.765490
vt 0.492748 0.488921
vt 0.734843 0.503978
vt 0.243105 0.780977
vt 0.225926 0.508117
vt 0.492748 0.185496
vt 0.728636 0.217094
vt 0.271206 0.224859
vt 0.802791 0.927794
vt 0.715930 1.111625
vt 0.881292 1.007405
vt 0.689750 0.907410
vt 0.492748 0.906749
vt 0.243105 1.179087
vt 0.492748 1.141613
vt 0.026004 0.777499
vt -0.006243 0.526606
vt 0.097773 0.290203
vt 0.224859 1.201244
vt 0.318928 0.059416
vt 0.492748 -0.016218
vt 0.721687 -0.012890
vt 0.974547 0.256276
vt 0.915894 0.059928
vt 0.949049 0.525560
vt 0.881292 0.738338
vn -0.9373 0.0763 0.3400
vn -0.8461 0.2065 0.4914
vn -0.9910 0.0947 0.0948
vn -0.9886 -0.1085 -0.1043
vn -0.7962 0.2458 0.5528
vn -0.9345 0.2979 0.1946
vn -0.8523 -0.0140 -0.5228
vn -0.8077 -0.1534 -0.5693
vn -0.8385 0.2985 -0.4558
vn -0.7317 -0.3154 0.6042
vn -0.7741 0.1657 0.6110
vn -0.8209 -0.5437 0.1747
vn -0.7668 0.2529 0.5899
vn -0.7606 0.2456 0.6010
vn -0.7325 0.3150 0.6035
vn -0.7250 0.4615 0.5112
vn -0.7412 0.6598 0.1233
vn -0.5929 0.6553 -0.4679
vn -0.3228 0.4696 -0.8217
vn -0.4083 0.2215 -0.8855
vn -0.4606 -0.0463 -0.8864
vn -0.5749 0.0188 -0.8180
vn -0.7718 -0.3969 -0.4968
vn -0.7218 -0.0055 -0.6920
vn -0.7941 -0.5643 -0.2257
vn -0.3995 0.0726 -0.9138
vn -0.2892 0.0349 -0.9566
vn -0.2357 0.1467 -0.9607
vn -0.2481 -0.0401 -0.9679
vn -0.1317 0.2588 -0.9569
vn -0.1025 0.3692 -0.9237
vn 0.2649 0.2416 -0.9335
vn 0.1712 -0.0557 -0.9836
vn 0.2819 0.4675 -0.8378
vn -0.3739 -0.3151 -0.8723
vn -0.0412 0.5293 -0.8474
vn 0.0344 0.5922 -0.8050
vn 0.2639 0.6343 -0.7266
vn 0.6137 0.5061 -0.6060
vn 0.7424 0.3656 -0.5614
vn 0.8137 0.2354 -0.5314
vn 0.7843 0.1114 -0.6102
vn 0.0657 -0.5975 -0.7992
vn 0.5825 -0.5093 -0.6334
vn -0.1445 -0.4851 -0.8625
vn 0.9432 0.1416 -0.3005
vn 0.9055 0.1692 -0.3890
vn 0.9537 0.1290 -0.2715
vn 0.9853 0.0110 -0.1703
vn 0.8201 0.2839 -0.4967
vn 0.9143 0.2861 -0.2865
vn 0.9728 0.0982 0.2097
vn 0.9485 -0.1020 0.2998
vn 0.9499 0.2840 0.1306
vn 0.8062 -0.5175 -0.2867
vn 0.6286 0.5798 -0.5183
vn 0.6699 0.6881 -0.2787
vn 0.6984 0.7113 0.0793
vn 0.6398 0.6076 0.4706
vn 0.7725 0.2710 0.5743
vn 0.7595 0.0198 0.6502
vn 0.6920 -0.1176 0.7122
vn 0.7563 -0.5693 0.3222
vn 0.6366 -0.4248 0.6436
vn 0.8297 -0.5557 -0.0521
vn 0.4439 -0.1119 0.8890
vn 0.3744 0.0131 0.9272
vn -0.1498 0.1110 0.9825
vn 0.0314 -0.0429 0.9986
vn 0.2985 0.3224 0.8983
vn -0.2645 0.3309 0.9058
vn -0.5945 0.2242 0.7722
vn -0.4927 0.0739 0.8670
vn -0.6375 0.2782 0.7184
vn 0.4693 -0.4992 0.7283
vn 0.2452 0.7613 0.6002
vn -0.2206 0.7259 0.6515
vn -0.5782 0.5268 0.6229
vn -0.4101 -0.5446 0.7316
vn 0.0983 -0.5928 0.7993
vn -0.4886 -0.7332 -0.4728
vn -0.0628 -0.9158 -0.3966
vn -0.0441 -0.9891 -0.1404
vn -0.3197 -0.9282 -0.1903
vn 0.0884 -0.9532 -0.2890
vn 0.2590 -0.9643 -0.0544
vn 0.0335 -0.9873 0.1554
vn -0.3093 -0.9442 0.1133
vn 0.3747 -0.8918 0.2535
vn 0.2874 0.8208 -0.4936
vn 0.1186 0.8628 -0.4913
vn 0.0784 0.9855 -0.1504
vn 0.2430 0.9431 -0.2271
vn -0.0989 0.8568 -0.5061
vn -0.2320 0.9726 -0.0143
vn -0.0769 0.9806 0.1804
vn 0.2269 0.9715 0.0688
vn -0.4154 0.8384 0.3529
g Cube_Cube.002_Golden_ore
usemtl Golden_ore
s 1
f 45/1/1 46/2/2 49/3/3 48/4/4
f 46/2/2 47/5/5 50/6/6 49/3/3
f 48/4/4 49/3/3 52/7/7 51/8/8
f 49/3/3 50/6/6 53/9/9 52/7/7
f 1/10/10 12/11/11 45/1/1 11/12/12
f 12/11/11 13/13/13 46/2/2 45/1/1
f 13/13/13 14/14/14 47/5/5 46/2/2
f 14/14/14 2/15/15 15/16/16 47/5/5
f 47/5/5 15/16/16 16/17/17 50/6/6
f 50/6/6 16/17/17 17/18/18 53/9/9
f 53/19/9 17/20/18 4/21/19 18/22/20
f 52/23/7 53/19/9 18/22/20 19/24/21
f 51/25/8 52/23/7 19/24/21 20/26/22
f 9/27/23 51/25/8 20/26/22 3/28/24
f 10/29/25 48/4/4 51/8/8 9/30/23
f 11/12/12 45/1/1 48/4/4 10/29/25
f 54/31/26 55/32/27 58/33/28 57/34/29
f 55/32/27 56/35/30 59/36/31 58/33/28
f 57/34/29 58/33/28 61/37/32 60/38/33
f 58/33/28 59/36/31 62/39/34 61/37/32
f 3/28/24 20/26/22 54/31/26 23/40/35
f 20/26/22 19/24/21 55/32/27 54/31/26
f 19/24/21 18/22/20 56/35/30 55/32/27
f 18/22/20 4/21/19 24/41/36 56/35/30
f 56/35/30 24/41/36 25/42/37 59/36/31
f 59/36/31 25/42/37 26/43/38 62/39/34
f 62/44/34 26/45/38 8/46/39 27/47/40
f 61/48/32 62/44/34 27/47/40 28/49/41
f 60/38/33 61/37/32 28/50/41 29/51/42
f 21/52/43 60/38/33 29/51/42 7/53/44
f 22/54/45 57/34/29 60/38/33 21/52/43
f 23/40/35 54/31/26 57/34/29 22/54/45
f 63/55/46 64/56/47 67/57/48 66/58/49
f 64/56/47 65/59/50 68/60/51 67/57/48
f 66/58/49 67/57/48 70/61/52 69/62/53
f 67/57/48 68/60/51 71/63/54 70/61/52
f 7/64/44 29/65/42 63/55/46 32/66/55
f 29/65/42 28/49/41 64/56/47 63/55/46
f 28/49/41 27/47/40 65/59/50 64/56/47
f 27/47/40 8/46/39 33/67/56 65/59/50
f 65/59/50 33/67/56 34/68/57 68/60/51
f 68/60/51 34/68/57 35/69/58 71/63/54
f 71/63/54 35/69/58 6/70/59 36/71/60
f 70/61/52 71/63/54 36/71/60 37/72/61
f 69/62/53 70/61/52 37/72/61 38/73/62
f 30/74/63 69/62/53 38/73/62 5/75/64
f 31/76/65 66/58/49 69/62/53 30/74/63
f 32/66/55 63/55/46 66/58/49 31/76/65
f 72/77/66 73/78/67 76/79/68 75/80/69
f 73/78/67 74/81/70 77/82/71 76/79/68
f 75/80/69 76/79/68 79/83/72 78/84/73
f 76/79/68 77/82/71 80/85/74 79/83/72
f 5/86/64 38/87/62 72/77/66 41/88/75
f 38/87/62 37/89/61 73/78/67 72/77/66
f 37/89/61 36/90/60 74/81/70 73/78/67
f 36/90/60 6/91/59 42/92/76 74/81/70
f 74/81/70 42/92/76 43/93/77 77/82/71
f 77/82/71 43/93/77 44/94/78 80/85/74
f 80/95/74 44/96/78 2/15/15 14/14/14
f 79/97/72 80/95/74 14/14/14 13/13/13
f 78/98/73 79/97/72 13/13/13 12/11/11
f 39/99/79 78/84/73 12/100/11 1/101/10
f 40/102/80 75/80/69 78/84/73 39/99/79
f 41/88/75 72/77/66 75/80/69 40/102/80
f 81/103/81 82/104/82 85/105/83 84/106/84
f 82/104/82 83/107/85 86/108/86 85/105/83
f 84/106/84 85/105/83 88/109/87 87/110/88
f 85/105/83 86/108/86 89/111/89 88/109/87
f 3/112/24 23/113/35 81/114/81 9/30/23
f 23/115/35 22/116/45 82/104/82 81/103/81
f 22/116/45 21/117/43 83/107/85 82/104/82
f 21/117/43 7/118/44 32/119/55 83/107/85
f 83/107/85 32/119/55 31/120/65 86/108/86
f 86/108/86 31/120/65 30/121/63 89/111/89
f 89/111/89 30/121/63 5/122/64 41/123/75
f 88/109/87 89/111/89 41/123/75 40/124/80
f 87/110/88 88/109/87 40/124/80 39/125/79
f 11/126/12 87/110/88 39/125/79 1/127/10
f 10/128/25 84/106/84 87/110/88 11/126/12
f 9/129/23 81/103/81 84/106/84 10/128/25
f 90/130/90 91/131/91 94/132/92 93/133/93
f 91/131/91 92/134/94 95/135/95 94/132/92
f 93/133/93 94/132/92 97/136/96 96/137/97
f 94/132/92 95/135/95 98/138/98 97/136/96
f 8/139/39 26/43/38 90/140/90 33/141/56
f 26/142/38 25/143/37 91/131/91 90/130/90
f 25/42/37 24/41/36 92/144/94 91/145/91
f 24/41/36 4/21/19 17/20/18 92/144/94
f 92/134/94 17/146/18 16/147/17 95/135/95
f 95/135/95 16/147/17 15/148/16 98/138/98
f 98/149/98 15/16/16 2/15/15 44/96/78
f 97/136/96 98/138/98 44/150/78 43/151/77
f 96/137/97 97/136/96 43/151/77 42/152/76
f 35/153/58 96/137/97 42/152/76 6/154/59
f 34/155/57 93/133/93 96/137/97 35/153/58
f 33/156/56 90/130/90 93/133/93 34/155/57
